<?xml version="1.0" encoding="UTF-8"?> <svg xmlns="http://www.w3.org/2000/svg" xmlns:xlink="http://www.w3.org/1999/xlink" width="219px" height="70px" viewBox="0 0 219 70"> <!-- Generator: Sketch 50.2 (55047) - http://www.bohemiancoding.com/sketch --> <title>Artboard</title> <desc>Created with Sketch.</desc> <defs></defs> <g id="Artboard" stroke="none" stroke-width="1" fill="none" fill-rule="evenodd"> <g id="Group"> <g id="zoozabota_logo"> <path d="M23.6476268,16.7156603 L24.5013774,18.4701895 L23.7752298,19.2627735 C23.2056171,19.8134109 23.0012522,20.2305604 21.8968122,21.3193206 C21.340244,21.8657865 21.2619766,22.2078491 20.6532301,22.704257 L19.4226926,23.8430752 C19.0226592,23.7095873 18.7443751,23.563585 18.3704309,23.4217542 C18.2312888,23.3675247 17.9399601,23.2757518 17.8399518,23.2298654 C17.2834507,22.9670929 17.6615849,23.2298021 17.3574128,22.8962664 C16.773769,22.8999281 14.0787083,22.0273554 13.1960859,21.8032141 C11.7742281,21.4444655 10.20888,21.1399463 8.85224505,20.8979996 C9.21749293,20.0428431 9.26532301,20.2806184 9.88276585,19.6632371 C11.7177016,17.8319507 13.7570023,15.3874546 15.8267403,13.3475935 C16.1485063,13.0305599 16.2137291,12.8929005 16.5050578,12.5675239 L19.4270408,9.36381566 C19.5444419,9.13855492 19.522701,9.2428423 19.5792274,8.94666615 C20.0879655,8.99255259 19.7922887,9.01341007 19.8401188,8.75477737 C20.3575533,8.76729186 20.0662246,8.97169512 20.2705895,8.50448767 L21.0793526,8.07065217 C21.5054752,8.83403578 21.9142049,11.4537347 22.2272745,12.5675239 C22.6142634,13.9482888 23.0969124,15.4458555 23.6534805,16.7098185 L23.6476268,16.7156603 Z M19.5792274,8.94666615 C19.6661912,8.74226289 19.3096397,8.79649232 19.8357706,8.75060588 C19.9357789,8.60877504 19.7575032,8.63380401 20.2618931,8.50031617 C20.0618764,8.96752362 20.3488569,8.75894887 19.8357706,8.75060588 C19.7879405,9.00923857 20.0836173,8.9883811 19.5748792,8.94249465 C19.5183528,9.2386708 19.5400937,9.13438343 19.4226926,9.35964416 L16.5007096,12.5633524 C16.2093809,12.888729 16.1441581,13.0263884 15.8223921,13.343422 C13.7526541,15.3874546 11.7133534,17.8277792 9.87841767,19.6590656 C9.26097482,20.2764469 9.21749293,20.0386716 8.84789686,20.8938281 L8,20.6685674 C9.30010852,18.036354 11.2350526,15.9756354 13.0352029,14.1026341 C14.1570357,12.938787 18.0921468,9.35547267 19.5792274,8.94666615 Z M20.1792775,24.3478261 L19.4270408,23.8430752 L20.6575783,22.704257 C21.2619766,22.2078491 21.3445922,21.8657865 21.9011604,21.3193206 C23.0056004,20.2347319 23.2099653,19.8134109 23.779578,19.2627735 L24.5057256,18.4701895 C24.5318147,18.4993899 24.5666002,18.5369334 24.583993,18.5577909 L25.3623188,19.5088918 C23.5534722,20.5183936 21.5793944,22.9462037 20.1792775,24.3478261 Z" id="Shape" fill="#F50206"></path> <path d="M19.3682645,47.2582519 L23.7302757,51.6856637 C23.9628015,51.9830906 23.9111291,51.7918876 24.031698,52.2720196 L24.9919434,50.4407197 C23.502056,49.5781817 21.1337379,47.0797957 20.1433504,45.6606445 C19.2778378,46.4382034 18.9979456,46.2597473 18.5285881,46.8078626 C19.0840663,46.8121115 18.9548853,46.8248584 19.3682645,47.2582519 Z M16.9267438,47.5726746 C17.335817,47.8701015 17.2410842,47.9678275 17.6372393,48.3842251 C17.9343555,48.6986478 18.132433,48.9068467 18.4252433,49.2127715 C18.4467734,49.2340163 18.4769157,49.2680079 18.4984458,49.2892527 L20.8624579,51.6176804 C21.0519233,51.8258792 21.0605354,51.8216303 21.2241646,51.9873395 L23.3082845,54.0820747 L24.031698,52.2720196 C23.9111291,51.7961365 23.9628015,51.9830906 23.7302757,51.6856637 L19.3682645,47.2582519 C18.9548853,46.8248584 19.0840663,46.8121115 18.5285881,46.8036136 C17.9429676,46.9353312 17.2583084,47.1435301 16.9267438,47.5726746 Z M9.31367777,51.1587932 C9.33951396,51.180038 9.37826826,51.2097807 9.40841049,51.2352744 C9.43855272,51.2607681 9.46869495,51.2862619 9.49453115,51.3117556 C9.52036734,51.3372493 9.55050957,51.3627431 9.57634577,51.3882368 L11.7896467,53.5679511 C12.2633103,54.0353362 12.5044481,54.4559828 12.9824178,54.8596336 L14.4679991,56.3212743 C14.4895292,56.3425191 14.5153654,56.3765108 14.5368956,56.3935066 C14.5584258,56.4147514 14.588568,56.4444941 14.6100982,56.4614899 C14.7995636,56.6356971 14.7263611,56.5507179 14.9330506,56.7249251 C15.4497746,57.1498207 18.7998681,60.4555082 19.2692257,61.1565859 L21.1897164,62.3292977 C21.4868326,61.725946 21.9389661,59.0278591 22.1757979,58.0845909 C22.5116684,56.741921 23.0456165,55.3185208 23.3082845,54.0778257 L21.2241646,51.9830906 C21.0605354,51.8173813 21.0519233,51.8216303 20.8624579,51.6134314 L18.4984458,49.2850037 C18.4769157,49.263759 18.4467734,49.2297673 18.4252433,49.2085225 C18.132433,48.9025977 17.9343555,48.6901499 17.6372393,48.3799762 C17.2410842,47.9635785 17.335817,47.8616036 16.9267438,47.5684256 C16.3884897,47.5811725 13.6197106,48.5414365 12.7412799,48.7708801 C11.7681165,49.0258174 8.98211324,49.4974515 8.32329021,49.8501148 L9.11560026,50.9973329 L9.31367777,51.1587932 Z M14.9373567,56.7291741 C14.7306671,56.5592159 14.8038696,56.639946 14.6144042,56.4657388 C14.592874,56.4444941 14.5627318,56.4147514 14.5412016,56.3977555 C14.5196715,56.3765108 14.4895292,56.3467681 14.4723051,56.3255233 L12.9867238,54.8638825 C12.5130602,54.4644807 12.2719223,54.0395851 11.7939527,53.5722 L9.5806518,51.3924857 C9.55481561,51.371241 9.52467338,51.3414983 9.49883718,51.3160045 C9.47300098,51.2905108 9.43855272,51.2607681 9.41271652,51.2395233 C9.38257429,51.2140296 9.34382,51.1842869 9.3179838,51.1630421 L9.11560026,51.0058308 C9.98541889,52.8243838 12.1470474,55.2590354 13.6154046,56.737672 C14.7565033,57.88489 17.6889117,60.4894999 19.2778378,61.1650838 C18.8041742,60.4597572 15.4540806,57.1540697 14.9373567,56.7291741 Z" id="Shape" fill="#F50206"></path> <path d="M52.835363,46.7891892 C52.8618473,46.763964 52.8927455,46.7345345 52.9192298,46.7093093 C53.0957915,46.5495495 52.9810264,46.6378378 53.2017285,46.4696697 C53.1708302,46.4402402 53.1266898,46.3603604 53.1090336,46.3897898 C53.0295808,46.3351351 53.0251668,46.3015015 52.9280579,46.2342342 C52.9280579,46.2342342 52.6764575,46.045045 52.6632154,46.0324324 C52.4425133,45.8684685 52.3277482,45.796997 52.1688427,45.6666667 C49.7278777,48.6096096 49.8735411,48.248048 47,50.5141141 C47.5385131,50.9513514 47.5164429,51.418018 48.0505419,51.7543544 L52.835363,46.7891892 Z M48.5758129,53.0996997 C48.589055,53.1333333 48.5978831,53.1711712 48.6111252,53.2048048 C48.8847958,53.9363363 48.7832728,53.7303303 49.0878417,53.9657658 C49.3791684,53.4780781 49.3041297,53.5327327 49.6793233,53.1585586 C49.8382288,53.003003 49.9000253,52.9525526 50.0545168,52.7927928 L53.6740309,49.0342342 C54.1728176,48.4666667 54.7642992,47.8570571 55.1748051,47.2936937 L54.4067618,46.9783784 C54.3626214,46.9615616 54.2257861,46.9153153 54.1816457,46.8984985 C53.8108662,46.7597598 53.5416097,46.6126126 53.2017285,46.4612613 C52.9810264,46.6252252 53.1002055,46.5369369 52.9192298,46.7009009 C52.8927455,46.7261261 52.8618473,46.7555556 52.835363,46.7807808 L48.0549559,51.7459459 C48.1299947,52.3807808 48.3242125,52.448048 48.5758129,53.0996997 Z M50.2354925,57.8588589 C50.5974439,59.2 50.9329111,60.6 51.2065817,62 C51.7362666,61.9075075 53.1002055,61.0834835 53.4136025,60.7219219 C53.8770768,60.0660661 54.2610984,59.6918919 54.746643,59.1369369 L55.4264054,58.4852853 C55.695662,58.2078078 55.8236692,58.0774775 56.0929257,57.821021 C56.446049,57.4804805 56.4725333,57.387988 56.7815162,57.0348348 C57.0110464,56.7741742 57.2052642,56.6186186 57.4524505,56.3747748 C57.7614334,56.0762763 57.8099879,55.987988 58.0748304,55.6726727 L59.4255271,54.218018 C61.0984489,52.7339339 62.4977001,50.8756757 63.2878135,50.1147147 C63.6453509,49.76997 63.7248036,49.8498498 64.0028883,49.4924925 C61.8046955,49.3201201 57.0242885,48.0504505 55.1792191,47.3021021 C54.7687132,47.8654655 54.1772317,48.4750751 53.678445,49.0426426 L50.0589308,52.8012012 C49.9044394,52.9567568 49.8426428,53.0072072 49.6837373,53.166967 C49.3085438,53.5411411 49.3835825,53.4864865 49.0922557,53.9741742 C49.0878417,54.5291291 49.9971343,56.9633634 50.2354925,57.8588589 Z M55.2233595,59.6036036 C58.1586972,57.5393393 63.0759395,52.590991 64.4222222,49.5933934 L63.9984742,49.5009009 C63.7203896,49.8582583 63.6409369,49.7783784 63.2833995,50.1231231 C62.493286,50.8882883 61.0940349,52.7465465 59.4211131,54.2264264 L58.0704163,55.6810811 C57.8011598,55.9963964 57.7570194,56.0804805 57.4480365,56.3831832 C57.2008502,56.6228228 57.0022183,56.7783784 56.7771022,57.0432432 C56.4681192,57.3963964 56.441635,57.4888889 56.0885117,57.8294294 C55.8192551,58.0858859 55.695662,58.2204204 55.4219914,58.4936937 L54.742229,59.1453453 C54.2566844,59.7003003 53.8726628,60.0744745 53.4091884,60.7303303 C54.3008248,60.4570571 54.4641444,60.1375375 55.2233595,59.6036036 Z" id="Shape" fill="#F50206"></path> <path d="M53.779397,9.26421622 C53.7341709,9.5418172 53.6979899,9.46690899 53.9829146,9.37437533 C54.1728643,9.85907546 57.0809045,12.1334149 57.6733668,12.6753978 C57.6959799,12.6974296 57.7276382,12.7282742 57.7502513,12.750306 L59.061809,13.8915545 C59.4100503,14.1955936 59.6994975,14.6274174 60.0884422,15.0019584 C60.5497487,15.4470012 61.739196,16.7072215 62.3904523,16.8394125 C62.2683417,17.1698898 62.218593,17.0861689 62.5849246,17.0465116 C62.5849246,16.6940024 62.6934673,16.7028152 62.3904523,16.8394125 C62.1959799,16.1255814 59.2201005,12.9662179 58.6547739,12.4771114 C57.6869347,11.6443084 55.0005025,9.62553813 53.9829146,9.37437533 C54.0643216,9.08355526 54.0869347,9.17168256 53.779397,9.26421622 C53.8246231,8.99542797 53.8653266,9.09236799 53.5487437,9.06152344 C53.5487437,9.41403262 53.4537688,9.36996897 53.779397,9.26421622 Z M49.6602299,16.9495716 C49.786863,17.0685435 49.7732952,17.050918 49.8999284,17.1698898 L55.321608,22.2107711 C56.0678392,22.9730722 55.8281407,22.9069767 56.4974874,22.9025704 C57.2437186,22.8276622 59.5457286,22.0124847 60.5452261,21.7569155 C61.9788945,21.3823745 63.5256281,21.0695226 65,20.8139535 C64.5613065,19.7079559 63.1954774,17.8440636 62.5894472,17.0465116 C62.2231156,17.0905753 62.2683417,17.1742962 62.3949749,16.8394125 C61.7437186,16.7028152 60.5542714,15.4470012 60.0929648,15.0019584 C59.7040201,14.6274174 59.4145729,14.1955936 59.0663317,13.8915545 L57.7547739,12.750306 C57.7321608,12.7282742 57.7005025,12.6974296 57.6778894,12.6753978 C57.0854271,12.1334149 54.1773869,9.85907546 53.9874372,9.37437533 C53.6979899,9.46250263 53.7386935,9.53741083 53.7839196,9.26421622 C53.4537688,9.36996897 53.5532663,9.41403262 53.5532663,9.06152344 L51.2749023,7.90307617 C50.4924903,11.1241288 50.0401294,13.305508 48.9592248,16.2974296 L49.6602299,16.9495716 Z M48.4391243,19.6462668 L49.2305816,20.3997552 C49.7597273,20.928519 49.9125628,20.9858017 50.4552764,21.5233782 L52.6894472,23.5767442 C53.0105528,23.8940024 53.1100503,24.0658507 53.5532663,24.2376989 C54.0507538,24.0878825 54.5527638,23.8367197 55.0276382,23.6208078 C55.6698492,23.3299878 56.0678392,23.3167687 56.5020101,22.9069767 C55.8326633,22.9113831 56.0768844,22.9818849 55.3261307,22.2151775 L49.904451,17.1742962 C49.7778178,17.0553244 49.7913856,17.0729498 49.6647525,16.953978 L48.9547022,16.301836 C48.7421394,16.5485924 48.5521897,17.3241126 48.4391243,17.60612 C48.3305816,17.8749082 48.2310841,18.0643819 48.1496771,18.2318237 C47.9325917,18.6900857 47.9461595,18.5534884 47.8737977,19.0029376 C47.9823404,19.2761322 48.1768128,19.3995104 48.4391243,19.6462668 Z M52.6894472,23.5723378 L50.4552764,21.5189718 C49.9125628,20.9813953 49.7597273,20.9241126 49.2305816,20.3953488 L48.4391243,19.6418605 C48.1768128,19.3995104 47.986863,19.2717258 47.8692751,18.9985312 C47.4531947,19.2364749 47.625054,19.1835985 47.3039485,19.4832313 C47.5753052,19.9414933 48.2084711,20.324847 48.7783203,20.8139535 C50.4019384,22.2151775 51.2512563,22.9995104 52.5763819,25 L53.5487437,24.2244798 C53.1100503,24.0614443 53.0105528,23.8895961 52.6894472,23.5723378 Z" id="Shape" fill="#F50206"></path> <path d="M21.6985347,8.0729658 L23.2211146,8.43224352 L24.762779,8.0729658 L26.6453788,6.98923346 L27.1244563,5.76084329 L27.5499014,3.95268968 L29.0237762,3.30530472 L29.720358,2.30473148 L31.6280061,1.78826975 L33.2265262,1.00158854 L34.338592,1.00158854 L36.4481177,0.56105468 L37.6998378,1.00158854 L38.6276195,1.38046669 L40.0207832,1.00158854 L41.2731991,1.38046669 L42.0455222,2.30473148 L43.604283,2.69350499 L44.5227214,3.62176597 L45.5713712,3.95268968 L46.4609841,4.80426162 L47.5420377,6.98923346 L48.6727904,7.42919644 L51.1977006,8.0729658 L49.2966128,15.4482448 L47.5420377,18.9687098 L47.1712829,19.6891682 L45.2733758,18.9687098 L43.604283,18.9687098 L38.6276195,20.6238992 L35.2864522,20.9236145 L33.2265262,19.6891682 L30.7702006,18.9687098 L28.6854251,18.1614767 L27.5499014,18.4889751 L26.0088334,19.288977 L25.4056858,18.9687098 L23.8548768,16.1723188 L22.1889648,10.78125 L21.6985347,8.0729658 Z M64.2207031,21.0742188 L64.2207031,22.8049316 L64.2207031,24.138463 L65.3044355,25.2188167 L66.4125977,26.4760742 L68.2207513,26.9015192 L68.9883642,27.5972142 L69.9889374,28.293796 L70.9132022,29.7634277 L71.7326142,31.7999642 L72.1586914,33.3105469 L72.513916,35.9143066 L72.1586914,36.723877 L71.5681152,37.2678223 L71.9469934,38.6609859 L71.5681152,39.9134018 L70.6438505,40.6857249 L70.2550769,42.2444858 L69.326816,43.1629241 L68.9958922,44.2115739 L68.1443203,45.1011868 L65.3044355,46.1154757 L64.8644725,47.2462284 L64.2207031,49.7711386 L56.8454241,47.8700508 L53.3249591,46.1154757 L52.6045007,45.7447208 L53.3249591,43.8468137 L53.3249591,42.177721 L51.6697697,37.2010575 L51.3700544,33.8598902 L52.6045007,31.7999642 L53.3249591,29.3436386 L54.1321922,27.2588631 L53.8046938,26.1233393 L53.004692,24.5822714 L53.3249591,24.7813699 L56.1213501,23.2305609 L61.5124189,21.5646489 L64.2207031,21.0742188 Z M8.37252634,49.5463384 L8.89453504,48.4317973 L8.53525731,46.890133 L8.26538086,45.6669922 L6.57666016,44.1030106 L4.8827512,44.1030106 L3.3837943,42.6291357 L2.38322106,41.9325539 L1.86675933,40.0249058 L1.08007812,38.4263857 L1.08007812,37.3143199 L0.639544262,35.2047943 L1.08007812,33.9530741 L1.45895628,33.0252924 L1.08007812,31.6321288 L1.45895628,30.3797128 L2.38322106,29.6073897 L2.77199457,28.0486289 L3.70025556,27.1301905 L4.03117927,26.0815407 L5.56347656,25.6408691 L7.45152498,24.1108742 L7.89148796,22.9801215 L8.45751953,20.9431152 L15.9105363,22.3562991 L19.4310013,24.1108742 L20.1514597,24.4816291 L19.4310013,26.3795362 L19.4310013,28.0486289 L21.0861908,33.0252924 L22.2380371,35 L20.1514597,38.4263857 L19.4310013,40.8827113 L18.6237682,42.9674868 L18.9512666,44.1030106 L20.1514597,45.6669922 L19.4310013,46.2472261 L16.5075684,47.5009766 L11.0808105,49.0559082 L8.37252634,49.5463384 Z M51.0121713,62.0346508 L49.4895914,61.6753731 L47.947927,62.0346508 L46.0653272,63.1183831 L45.6687667,64.2552279 L45.1608046,66.1549269 L43.6869297,66.8023119 L42.9903479,67.8028851 L41.0826998,68.3193469 L39.4841798,69.1060281 L38.3721139,69.1060281 L36.2625883,69.5465619 L35.0108682,69.1060281 L34.0830864,68.7271499 L32.6899228,69.1060281 L31.4375069,68.7271499 L30.6651837,67.8028851 L29.1064229,67.4141116 L28.1879846,66.4858506 L27.1393347,66.1549269 L26.2497218,65.303355 L25.1686682,63.1183831 L24.0379156,62.6784202 L21.5130053,62.0346508 L23.4140932,54.6593718 L25.1686682,51.1389068 L25.5394231,50.4184484 L27.4373302,51.1389068 L29.1064229,51.1389068 L34.0830864,49.4837174 L37.4242538,49.1840021 L39.4841798,50.4184484 L41.9405053,51.1389068 L44.0252808,51.9461399 L45.1608046,51.6186415 L46.7018726,50.8186396 L47.3050202,51.1389068 L48.8558292,53.9352978 L50.5217411,59.3263666 L51.0121713,62.0346508 Z" id="Combined-Shape" fill="#FFFFFF"></path> <path d="M31.5670262,67.7021658 C31.9728292,67.1603657 33.6325635,66.1547224 34.4685177,65.6324116 C34.6308389,66.9888607 35.1178025,67.8424881 33.9166256,68.314127 C32.6667523,68.8052551 31.9850033,68.855927 31.5670262,67.7021658 Z M37.4998662,68.781868 C37.1508756,68.8754163 36.659854,69.0001472 36.1972385,68.9494753 C35.320704,68.8520292 35.5723019,68.6766263 35.6859267,68.2868421 C35.9375246,67.425419 35.3978066,66.3963887 35.5966501,65.7532447 C35.7873775,65.1490792 37.6743615,64.4240805 37.4998662,68.781868 Z M40.571795,67.8658751 C40.0523671,68.2010896 39.6749703,68.7311961 38.7172752,68.6727285 C38.4940836,68.3024335 38.4940836,67.6631874 38.4453872,67.1798549 C38.2668339,65.9598303 38.0517583,65.6947771 37.747406,64.759295 C38.4981416,64.3734086 38.9972793,64.0148071 39.5532294,65.0282461 C39.8697558,65.6051267 40.303965,66.4665498 40.43788,67.1642636 L40.571795,67.8658751 Z M41.5863025,67.5891284 L41.4726776,66.9148017 C41.1358611,65.8350994 39.6222159,63.8861783 41.0790487,63.4106416 C42.3573282,62.9935725 43.1161798,65.1412835 43.2987912,66.2326793 C43.1242959,67.4566017 42.9295104,67.5774348 41.5863025,67.5891284 Z M44.2930085,65.6557987 C44.0332946,65.0204504 43.8831475,64.4903439 43.5219828,63.8861783 C43.2419788,63.4184373 42.7063188,62.3972026 43.7248843,62.3660199 C44.7759141,62.3348372 45.8147698,65.0204504 44.2930085,65.6557987 Z M24.3802549,62.065886 L22.2457311,61.7930371 L22.3958782,61.0446514 C22.8625516,58.5773173 24.3031523,52.2862001 25.7762172,51.105154 C26.5837652,51.2415784 27.224934,51.7288087 28.1501649,51.7677871 C29.2864133,51.8106634 34.0464826,50.0410431 35.2192533,49.6434632 C36.3270955,49.2692703 36.672028,49.2848617 37.5932009,49.8110704 C38.3074142,50.216446 38.8633643,50.5087841 39.5410553,51.0077079 C40.2146883,51.5066317 42.1584847,53.3425153 42.3410961,54.3910349 C41.6268828,54.9250393 41.383401,55.0263832 40.2633847,54.8704695 C38.3114722,54.5937227 37.8447987,53.1554189 37.0129026,52.9020592 C36.6842021,52.8007153 34.9514233,52.4810922 34.6835933,52.4888879 C34.3224286,52.8007153 33.9774961,53.3308218 33.6528537,53.7439931 C32.618056,55.0692594 31.0638305,56.4023214 29.1524983,56.6790682 C27.8417546,56.8700625 26.9692781,57.918582 26.3159353,58.5968065 C25.5327354,59.4036599 24.7292455,60.2222067 24.4330093,61.5708601 L24.3802549,62.065886 Z M46.7886971,51.3935943 C47.3081249,51.721013 47.9127714,52.5200707 47.9858159,53.3074348 L48.1440791,53.5335096 C48.8177121,54.3325673 50.2623708,59.9025837 50.4733884,61.4266399 C47.190442,60.8224744 47.6692896,61.2785219 45.6605647,62.5881969 C45.4170829,62.3426328 44.1022811,60.1325563 42.4263147,62.0347033 L41.9839894,62.4751595 C40.8071607,61.9528486 39.8291755,62.8532502 39.5735196,63.5665553 C37.5404465,62.9545941 37.6418972,64.264269 36.2175287,64.3695108 C35.5317216,64.4201827 35.5033154,64.4006935 35.0691062,64.7242144 C34.2047457,63.8822805 34.4644597,64.5176288 32.9305243,65.4842936 C32.8818279,65.5154763 32.5855917,65.7025728 32.5044311,65.745449 C32.0621059,65.9715239 32.4192125,65.8584864 32.0458737,65.9052606 L30.5078803,67.1798549 C29.6110557,67.448806 28.166397,65.9754217 30.3699073,65.1724662 C30.731072,64.5254244 33.1009616,64.1200489 32.9995108,62.7324171 C31.9200748,62.264676 30.3536752,64.3266345 29.2336589,64.5566072 L28.2921959,65.8350994 C27.496822,65.6674922 26.8962336,65.4024389 26.7420284,64.611177 C26.6121714,63.9563395 26.7744927,64.0031136 26.7785507,63.9914201 L26.8921755,63.7731409 C27.4400096,62.4985465 31.8876106,60.5067492 29.9519302,59.7310786 L26.7826087,62.2490846 C26.3605736,62.6310732 26.3159353,62.8142717 25.9182483,63.2313408 C25.062004,62.5765034 25.3704142,61.0212644 26.5350689,59.8714009 C27.1721796,59.2399505 28.1461068,57.895195 29.2661231,57.6769158 C31.1896294,57.2988251 31.408763,57.0532611 32.7113907,56.1762466 C33.8151749,55.4317587 34.23721,54.6327011 35.1096865,53.5568967 C37.3659512,54.0090464 36.3757918,53.9038046 37.7676962,54.8470824 C40.5028084,56.7063531 43.1648762,55.8059516 43.3353134,54.4534004 C43.4611124,53.4789398 42.3005158,52.4148289 41.9434091,51.8067655 C42.4587789,51.9743728 42.9700907,52.1614692 43.4935766,52.2939958 C44.3335889,52.512275 44.6663473,52.3485656 45.3602705,52.3758505 L46.7886971,51.3935943 Z M51.5812306,61.3720701 C51.3296327,60.0740887 51.0212224,58.7800051 50.688464,57.5326956 C50.4652723,56.7024553 49.6333761,54.4456047 49.6333761,53.9271917 C49.3533721,53.7089125 49.4467068,53.8960089 49.1951089,53.2216822 C49.1829348,53.1904995 49.1748187,53.1554189 49.1626447,53.1242362 C48.9313369,52.5200707 48.7527836,52.4577052 48.6837971,51.8769267 C48.1927755,51.5650993 48.2130656,51.1324389 47.7179859,50.7270633 C50.3597635,48.6261264 50.2217905,48.9613408 52.4699392,46.2328513 C52.6160283,46.3536844 52.721537,46.4199477 52.9244386,46.5719636 C52.9366126,46.5797592 53.1638623,46.7551621 53.1679204,46.75906 C53.1963266,46.782447 53.2409649,46.8370168 53.3342996,46.9032801 C53.3505317,46.8798931 53.391112,46.9539521 53.4195182,46.9773391 C53.7319865,47.1137636 53.9795264,47.2540859 54.3204009,47.3827147 C54.3609812,47.3983061 54.4867801,47.4411824 54.5273604,47.4567737 L55.2334577,47.7491119 C56.9297142,48.4468256 61.3245608,49.623974 63.3454598,49.7798876 L63.7350307,49.8656402 C62.4973315,52.6448016 57.976686,57.2325618 55.278096,59.1464023 C54.5801148,59.6414282 54.4299677,59.9337664 53.6143037,60.1871261 C53.3221255,60.5184427 52.0681942,61.2863176 51.5812306,61.3720701 Z M18.6746646,47.1410485 C19.1169899,46.6382269 19.3807618,46.8019362 20.1964259,46.0886311 C21.1297728,47.3944082 23.3657474,49.6824416 24.7657678,50.4737035 L23.860827,52.1536735 L23.179078,53.8141542 C22.9315382,54.9484263 22.4324005,56.2581013 22.1118161,57.4898194 C21.8886244,58.3590382 21.4584732,60.8341679 21.1825272,61.3837637 L19.3726458,60.3079592 C17.8792907,59.6882023 15.1157722,57.2988251 14.0363362,56.2464077 C12.6525479,54.8938565 10.6154168,52.6564951 9.79569476,50.9882187 L9.04901722,49.9358013 C9.66989582,49.6083826 12.2954413,49.1757221 13.2125561,48.9457494 C14.0403942,48.7352659 16.6497076,47.8543536 17.1569613,47.8426601 C17.4816037,47.4567737 18.1227725,47.2618816 18.6746646,47.1410485 Z M6.17187389,42.1868912 C6.58579296,41.9842034 7.13768505,41.524258 7.60030048,41.7074566 C9.45887826,42.4402509 5.11272803,44.6971015 4.59735821,42.8339329 C5.08026379,42.5649818 5.66462012,42.4363531 6.17187389,42.1868912 Z M2.56834317,40.2964377 C2.94573996,40.1015456 3.5300963,40.0274866 3.91966719,39.8871643 C4.33764429,39.7390463 4.75967941,39.5090736 5.15736636,39.3375686 C6.27332464,38.8542361 7.28377413,39.4233211 6.85768097,40.4250665 C6.49651629,41.2708983 2.29645515,43.2003301 2.56834317,40.2964377 Z M2.40602196,37.2639165 C4.52025564,37.0378417 3.93184128,36.9871697 5.5266471,36.5272244 C6.33419509,38.1526245 5.36026787,38.2344792 3.91966719,38.8230534 C3.39212327,39.0374347 2.6535618,39.3843427 2.17065622,39.0569239 C1.736447,38.7645858 1.37122429,38.1877051 1.41586262,37.4938892 L1.91905835,37.3223842 C2.03268319,37.2950993 2.28022303,37.2756101 2.40602196,37.2639165 Z M68.4869839,37.1937554 C69.8910624,37.104105 70.6661461,36.5701006 71.2342703,37.67319 C71.7536982,38.6788332 71.8835551,39.7624333 70.5931016,40.0079974 C70.0533836,39.6688851 69.9032364,39.2557139 69.5136656,38.6515483 C69.1484429,38.0902591 68.7426398,37.6848835 68.4869839,37.1937554 Z M68.223212,34.9135177 C69.0997465,34.4691637 69.8788883,34.3951047 71.0191947,34.2781695 L71.737466,34.2547824 C71.8348588,34.5705076 71.9728318,34.9485983 71.9687738,35.350076 C71.9606577,35.9854243 71.8308007,35.9854243 71.4696361,36.1803164 C70.1426602,35.2292429 68.0203105,37.5133784 68.223212,34.9135177 Z M1.2778896,36.3128431 C1.07904612,35.6658013 0.93701507,34.956394 1.35499217,34.4847551 C1.62688019,34.4457767 1.86224593,34.6211796 2.42225408,34.734217 L2.95385602,34.5705076 L4.59735821,34.4535724 C5.77418694,36.0594833 3.50169009,36.0984617 2.26399091,36.289456 L1.2778896,36.3128431 Z M67.5049407,34.0365032 C67.2452267,33.5297838 67.0910216,33.4362356 67.2898651,32.6956456 C67.6997261,32.2629851 68.9861216,31.6510239 69.704393,31.6276368 C69.7246831,31.6159433 69.7246831,31.5029059 70.244111,31.3820728 C70.4510705,31.3352986 70.4957088,31.3547879 70.7432487,31.3469922 C71.051659,31.6900023 71.7942785,32.4072052 71.6157251,33.104919 C71.46152,33.1906715 71.5832609,33.1516931 71.2789086,33.2413435 C71.2342703,33.253037 71.0962973,33.2842197 71.051659,33.2959132 C70.8852797,33.3309938 70.6864363,33.3387895 70.515999,33.3582787 C68.499158,33.4596226 68.2637923,33.9312615 67.5049407,34.0365032 Z M3.76546204,33.4869075 C3.54632842,33.5141924 3.10806117,33.5687622 2.90110163,33.5804557 C1.6147061,33.6701061 0.555560242,30.9844929 2.51558877,30.5713216 C3.54227039,31.5652713 3.59502478,32.4305923 4.54054579,33.1477952 C4.32952823,33.3621766 4.4066308,33.4050528 3.76546204,33.4869075 Z M51.6786233,36.1335423 C51.2971685,34.9641897 52.03573,33.8026327 52.7783495,32.9334139 L52.9284966,32.7736024 C53.2247328,32.0252167 55.7488275,29.7683661 56.8526117,29.6943071 C58.2810383,33.0230643 55.4688234,33.8572025 55.140123,34.8355609 C55.0508463,35.1006142 54.7464941,36.7221165 54.742436,36.9598849 C54.9737437,37.599131 58.4758237,38.6203656 59.1616308,42.4441487 C59.4213447,43.894146 62.3999388,46.2952168 63.5402453,46.6616139 C63.7593789,46.7317751 63.8608296,46.7395708 64.0677892,46.8097319 C64.9686719,47.1215593 63.4225624,46.5485765 64.2625746,46.8876888 C64.5953331,47.0241132 64.181414,48.4585192 64.1286596,48.8210185 C63.0573397,48.8950775 54.202718,47.1800269 53.1638623,45.2427994 C53.5615493,44.2527475 54.2311242,43.8161892 53.9064818,42.4090682 C53.7076384,41.5515429 53.0664696,40.3899859 53.1029919,39.6377024 L51.6786233,36.1335423 Z M69.6151163,30.4933647 C69.0794563,30.7623159 68.3124887,31.0585519 67.7565385,31.3002181 C67.0504413,31.6081476 66.2266612,31.4483361 66.1211524,30.6531763 C65.9669473,29.5228021 68.2759664,28.7393358 69.4812013,28.7705185 C70.3536778,28.9264322 70.6174497,29.3668884 70.4307804,30.3686338 C69.9965711,30.4271014 69.9681649,30.4154079 69.6151163,30.4933647 Z M68.4707518,27.7297947 C68.4707518,27.7297947 65.9060768,28.9537171 65.6138986,28.906943 C65.2892562,28.8523732 65.0538905,28.634094 65.0538905,28.2676969 C65.0579485,27.2230752 68.0040784,26.3577542 68.4707518,27.7297947 Z M31.5305039,19.6651593 C32.1108022,19.9146212 32.7397969,20.0900241 33.299805,20.3745666 C35.7670873,21.621876 35.5723019,22.1285955 38.5224898,21.1190544 C39.7480148,20.7019853 40.8761472,20.3044054 42.1179044,19.8912341 C43.7938708,19.3299449 44.2443122,19.0220153 45.977091,19.696342 C47.3487052,20.2303464 47.9330615,20.8228184 48.8948147,21.5751019 C50.9441199,23.1771151 52.3481983,25.7925671 53.253139,26.7436406 C54.3731553,27.9207889 52.7945816,30.1386611 52.0113818,32.068093 C51.090209,34.3366371 49.8119295,33.9234658 50.9725261,37.2249381 C51.3823871,38.3903929 51.8287704,39.5051758 52.2467475,40.6784262 C52.7702334,42.140117 53.3058934,42.8495243 52.4861713,44.2839302 C51.9992077,45.1375577 51.0293385,46.3536844 50.4044019,46.9617478 C49.5359834,47.8075795 48.9922074,48.411745 47.9168294,49.2497811 C47.4339238,49.6278718 47.0037726,49.8890272 46.4437645,50.2437308 C44.8854809,51.2259871 45.1167887,52.2316303 41.2981823,50.3957467 C40.6935359,50.1034085 40.1457018,49.9864733 39.5288812,49.6863394 C39.0540917,49.4524689 38.4981416,49.1094588 38.0233521,48.856099 C35.9131764,47.7257248 33.9206836,49.0704804 30.6904917,50.0956128 C28.9901771,50.6374129 28.5924901,51.0038101 26.8597113,50.3567683 C24.6156206,49.5187322 23.041105,47.7140313 21.56804,46.0808354 C21.0891925,45.5468311 20.9552775,45.1843318 20.5291843,44.6698166 C20.1517875,44.2098712 19.6485918,43.9721029 19.4538064,43.4303028 C19.1169899,42.4987185 20.8619428,38.784075 21.2636878,38.0980548 C23.3292251,34.5588141 22.6799403,35.2370386 20.6833895,29.5539848 C20.074685,27.8233429 19.8677254,27.6440421 20.484546,25.8549326 C20.9309293,24.560849 21.6451426,23.8670331 22.4242844,23.0367927 C23.2642966,22.1441869 23.8851752,21.5712041 24.9564952,20.7799421 L27.7362458,18.7530642 C28.6574186,18.2190599 30.7026658,19.3065578 31.5305039,19.6651593 Z M17.790014,41.302081 C17.9563933,41.17735 18.0740761,41.1305759 18.2120492,41.0409256 C18.5366916,40.8343399 18.6422004,40.7135068 18.9627847,40.5653888 C18.7558252,41.2747961 18.2404554,42.4012725 18.3337901,43.2393085 C18.4474149,44.2488496 19.1981505,44.6971015 19.4781546,45.2389015 C18.7639413,45.9249218 18.0984243,46.4043563 16.8810153,46.6888988 C16.1099896,47.2852687 10.4043993,48.5637609 8.98814677,48.8132228 C9.81192688,45.3909174 8.63104012,45.671562 7.76262168,44.1708928 L8.24146923,43.7577215 C8.39973241,43.6290927 8.45654483,43.5940122 8.614808,43.4458942 C9.38989175,42.7053042 9.17481615,41.6022148 8.34291998,41.005845 C8.33074589,40.9980493 8.14001848,40.8694205 8.07914803,40.8265442 L7.90465273,40.6940176 C8.18059878,38.6710375 7.52319791,39.0920045 6.7805784,38.1526245 C7.16203323,36.9326 6.63448932,36.0711768 5.88781178,35.6580056 C5.95274026,34.8784372 5.9446242,34.9291091 5.74578073,34.2586803 C5.43331241,33.1945693 5.8634636,34.3795134 5.89998587,33.2101607 C5.89592784,33.1984672 4.28488989,31.35089 3.9886537,30.7662137 C3.85068067,30.4933647 3.91155113,30.6765633 3.86691279,30.4115101 L2.96197208,29.6046567 C3.00661042,28.5912178 3.52198024,28.0650091 4.18343914,28.4275084 L4.89359441,29.203179 C5.77824497,29.7293877 6.0663651,32.0135232 7.55160412,31.9862383 C7.98175531,31.3119116 7.76262168,31.4834166 6.41535569,29.5072107 C5.21823681,27.7531817 5.44142847,28.3105732 4.42692095,27.3322148 C4.75156335,25.449557 6.64260538,25.6912232 7.5759523,26.9112478 C8.22523711,27.7570796 9.21133842,29.2577488 10.2055558,29.5578826 C11.3296301,28.9848998 10.6073008,29.0511632 9.16670009,27.2659515 C8.25364332,26.1355772 7.46638548,25.5859815 7.04029233,25.0948534 C8.78524526,24.2295324 9.65772173,25.0285901 10.6641132,25.819852 C11.4067327,26.4045283 12.7012443,27.5388004 12.8838557,28.5171588 C13.47227,31.697798 15.5378073,32.6020973 17.1366712,34.017014 C16.8688412,36.1881121 16.6699977,35.5683552 16.028829,36.266069 C14.9777992,37.4081367 14.1661932,39.7585355 15.1644686,41.1500651 C15.9152041,42.1946868 16.300717,41.8126983 17.4369654,41.695763 C17.6195768,41.4073227 17.4816037,41.5320537 17.790014,41.302081 Z M15.7812891,40.0079974 C15.4079504,37.5055827 17.5587063,36.7377078 17.8671166,35.6424142 C17.9888575,35.2175494 18.2891517,33.8182241 18.2526295,33.4518269 C17.3030504,32.9139247 16.0004228,31.9667491 15.4241825,31.2651375 C12.7053023,27.9363803 15.3917183,28.4236106 11.6136922,25.2975412 C10.5788946,24.4400159 10.0554087,23.9410921 8.32668786,23.6838345 L8.47683498,21.5673063 C11.0699162,21.8596444 18.5082854,23.4694532 19.6526498,24.9233483 C19.4903286,25.7263038 19.0520614,26.4396089 19.0155391,27.3478061 C18.9709008,28.4664868 20.8416527,32.9178226 21.2718039,34.1963148 C21.693839,35.4514199 21.56804,35.622925 20.9512195,36.5895898 C19.5877214,38.7256073 19.806855,38.363108 18.0903083,39.8598794 C17.2381219,40.6082651 16.0207129,41.6178062 15.7812891,40.0079974 Z M64.0677892,21.8518487 C63.6051737,24.4400159 63.7877851,24.8726764 65.2770821,26.3928348 C64.7820025,26.8995543 63.9988027,27.1412205 63.9541643,28.1390681 C63.913584,29.0823459 64.5263466,29.4448452 65.1350511,29.8658122 C65.0336003,31.2729332 65.1147609,31.8225289 66.2794156,32.2863721 C66.1211524,33.5648644 66.1536166,34.3600241 67.1559501,34.8862328 C67.1072537,35.6619034 67.0829055,35.6774948 67.3304454,36.3557193 C67.6266816,37.1742662 67.2289946,36.3907999 67.143776,37.3496691 C68.1420514,38.437167 67.7078422,37.7862274 68.6533632,39.2128376 L70.0736737,41.0954954 C70.0046872,41.7893113 69.6678707,42.4753315 68.8887289,42.2024825 C67.6185655,41.7581285 67.139718,38.339721 65.3704168,38.6320591 C65.1675153,39.3921383 65.52868,39.4895844 65.9101348,39.9768147 C67.5252308,42.0621602 66.0359338,40.8187486 68.633073,43.2354107 C68.3003146,45.3363476 66.4173886,44.7789562 65.4596935,43.6173992 C64.9483817,42.9937445 64.1002534,41.843881 63.503723,41.3449573 C63.1263262,41.029232 62.9355988,40.9083989 62.5135637,41.2358177 C62.0874705,41.7932091 62.696175,42.0387732 63.0816879,42.4168638 C63.3860401,42.7130998 63.7228566,43.1223733 64.039383,43.500464 L66.0115856,45.523444 C64.3396772,46.1393031 63.6051737,45.8391692 62.5013896,44.8491173 C61.8196405,44.2332583 60.4642585,43.2899805 60.2004865,42.2609502 C59.733813,40.4289644 59.6810587,40.2262766 58.6422029,38.932193 C58.0781368,38.2305814 56.8891339,37.1080029 55.9679611,36.6675467 C56.0410057,33.8766917 58.2729222,34.215804 58.3378507,31.202772 C58.3621989,30.0412151 57.8103068,28.8913516 56.893192,28.7120509 C55.9192648,28.5210566 54.8804091,29.5929632 54.1418476,29.9320755 C54.3244589,29.1018351 54.8154806,28.2988796 54.7059138,27.3439083 C54.5801148,26.2603082 53.8618435,26.0576204 53.6021296,25.2702563 C55.2293996,23.7929741 61.072963,22.2416329 64.0677892,21.8518487 Z M48.6594489,18.2814253 C48.7324935,18.1333073 48.8217701,17.9618023 48.9191629,17.7279318 C49.0206136,17.474572 49.1910509,16.7924496 49.3817783,16.5741705 C50.3516475,13.9275357 50.8386111,11.425121 51.5365923,8.57190058 L53.7522767,9.97512374 C54.0119906,10.2089943 53.8983658,10.0803655 54.1459056,10.2518705 C54.6612754,10.3415209 57.4897224,12.684124 58.3621989,13.4169183 C58.8735107,13.8495788 61.5396364,16.6443316 61.7141317,17.2757821 C61.9292073,17.5096526 61.6370292,17.1861317 61.888627,17.4589806 C62.4324031,18.1644901 63.6579281,19.8132773 64.0515571,20.7916357 C62.7286392,21.0177105 61.340793,21.2983551 60.0543974,21.6257739 C59.1616308,21.8557466 57.0920355,22.5729495 56.4224605,22.6392128 C56.0328896,23.0017122 55.675783,23.0134057 55.0995427,23.2706633 C54.6775075,23.4577597 54.2230082,23.6799367 53.7766249,23.8163612 L52.9041484,24.5023814 C51.7151456,22.7327611 50.6803479,21.8167682 49.2235151,20.5772544 C48.7122033,20.140696 48.1440791,19.8015838 47.9005973,19.400106 C48.1887174,19.1350528 48.0345123,19.177929 48.4078511,18.9713434 C48.4768376,18.5659678 48.4646635,18.6868009 48.6594489,18.2814253 Z M18.5285755,23.079669 C18.3987185,23.0289971 18.1227725,22.9432445 18.0334958,22.9003683 C17.514068,22.6548042 17.8671166,22.9003683 17.5871125,22.5885409 C17.0595686,22.6041323 14.5273578,21.7777897 13.6954617,21.5673063 C12.3684858,21.228194 10.907595,20.9475494 9.64148961,20.7214745 L8.85017375,20.510991 C10.0635247,18.0514526 11.8652901,16.1220208 13.5493726,14.3757875 C14.5963444,13.2843917 18.3662543,9.92834964 19.6567079,9.55805464 C19.9001897,9.3787539 19.9001897,9.3787539 20.2978766,9.14488337 L21.0526702,8.73950779 C21.4462991,9.45671074 21.831812,11.9006578 22.1239902,12.9413816 C22.4851548,14.2315674 22.9355962,15.6308927 23.455024,16.8119389 L24.254456,18.4568282 C24.2788041,18.4841131 24.3112684,18.5191937 24.3275005,18.5386829 L25.0538879,19.4273909 C23.3657474,20.3706687 21.5234017,22.6392128 20.216716,23.9488878 L19.5106188,23.4772489 C19.13728,23.3486201 18.8775661,23.2082978 18.5285755,23.079669 Z M40.7706384,19.2753751 C38.1694411,20.1251047 36.0998458,21.4230861 34.5496783,19.8483579 C33.3079211,19.2987621 32.9264663,18.7959405 32.1026862,18.043657 C31.6319547,17.6187922 31.5629682,17.3810238 31.1003527,16.8704065 C28.973945,14.512212 32.7763192,14.7889588 34.375183,15.9972898 C34.8662047,16.3675848 35.2638916,17.0107288 35.8198417,17.1510511 C38.6807529,17.8799476 37.8732049,17.6032008 39.1758326,16.1376122 C43.1689342,11.6356045 42.738783,15.3931243 46.7115945,11.0782131 C49.8241036,7.69488609 46.6831883,7.82741273 50.4733884,8.19770773 C50.1162817,10.7975684 48.395677,17.7435231 46.9307281,18.9011822 C46.0339035,18.6868009 45.4170829,18.1995707 44.2930085,18.2502426 C43.3231394,18.2931189 42.5115333,18.8855909 41.651231,18.8505103 L40.7706384,19.2753751 Z M28.4504591,4.36223107 C28.7223471,5.0404556 28.8927844,5.60954055 29.249891,6.21760392 C29.5380111,6.70873203 30.057439,7.62082709 28.9698869,7.65980552 C27.9350893,7.69878394 26.9165237,4.98588581 28.4504591,4.36223107 Z M29.655694,2.80309421 C30.0371488,2.54973448 30.3617913,2.38992295 31.1084688,2.47177763 L31.1774553,2.86156185 C31.5629682,4.25698933 33.6366215,6.80228025 30.860929,6.61128598 C30.333385,6.04220103 29.5745334,5.14569734 29.5948236,4.14005407 C29.3919221,3.95295764 29.3229355,3.45793169 29.5988816,3.34099643 L29.655694,2.80309421 Z M35.7305651,5.86290029 C36.262167,5.48091176 36.4772426,5.76935208 37.2158041,5.53158371 C38.425097,5.14569734 37.3537771,5.50819666 38.1978474,5.61343839 C38.6158245,5.66411034 38.8146679,5.21975634 39.2164129,4.9391117 C40.3201971,4.16344112 41.2413699,3.73467848 42.2031231,2.83037911 C42.8442918,2.86935753 43.0958897,2.99408848 43.4611124,3.22406116 C43.6356077,4.38172028 42.9782068,4.5961016 41.6106507,5.3639765 C40.9086115,5.7615564 39.2042388,6.5294313 39.8778718,7.22714504 C40.4216478,7.76114941 40.6935359,7.15308604 41.1764414,6.81397377 C41.5944185,6.52163561 42.0164537,6.31894782 42.4587789,6.03830319 C43.948076,5.09892323 43.7289424,4.97419228 44.5689546,4.19462386 C45.3967927,4.38561812 45.973033,4.72473039 46.0054972,5.66411034 C46.0379615,6.5294313 45.2709938,6.98937667 44.8083784,7.36356951 C44.1956158,7.85859546 41.785146,9.3046949 42.4466049,10.1037525 C43.0187871,10.5714936 43.3880678,9.73345753 44.8449006,8.60698115 L46.9266701,6.73211909 C47.7585662,8.53682 46.9956566,9.18386179 46.10289,10.2089943 C45.5063595,10.8950145 44.5446064,12.1540175 43.3190813,12.3567053 C40.1862821,12.8712205 39.094672,14.7655717 37.5810268,16.4299503 C37.1752238,16.3208107 36.3514437,16.289628 35.9699888,16.0596553 C35.7305651,15.9154352 35.2436014,15.3853286 34.8702627,15.1085818 C32.492257,13.3623486 29.4568505,14.1107343 29.4000381,15.6893603 C29.3716319,16.4182568 30.4388938,17.8058886 30.7554202,18.1761836 C27.5860987,16.956159 27.4116034,17.7240339 25.9304224,18.7179837 C24.254456,17.4979591 22.7042885,11.3978361 22.1889187,8.61477684 C25.3704142,9.04353947 25.0254817,8.91491068 27.0301485,7.43373067 C28.4301689,8.69663152 28.7913336,9.62042011 30.6499114,7.54676809 C32.0742799,7.78063862 32.7154487,7.45711772 33.1496579,6.45147445 C35.0204098,6.82956514 35.048816,6.35792624 35.7305651,5.86290029 Z M34.9838875,5.29381534 C34.099237,5.65241682 33.6122734,5.96424419 33.1334258,4.8923376 C32.8574798,4.27647854 32.3380519,3.55927559 32.3786322,2.83427695 C31.8592044,2.25739631 32.354284,1.968956 33.0441491,1.54798905 C34.3305447,0.768420619 34.1682235,1.78965526 34.1803976,2.07029989 C34.509098,4.65846707 34.6267809,3.88669433 34.9838875,5.29381534 Z M38.7740876,1.71169842 C39.9509164,1.19718325 40.8720892,1.10753288 41.1804995,2.32365963 C40.8315089,2.79919637 38.826842,4.08938212 38.2506017,4.33884402 C38.1856733,3.01357769 37.5729107,2.2379071 38.7740876,1.71169842 Z M37.1265274,3.45013601 C37.3213129,4.90013328 35.5317216,6.04999671 35.2233113,2.05081068 C35.1705569,1.3491991 35.0934543,1.2010811 35.7914355,1.08414583 C36.258109,1.00618899 36.7734788,1.10363504 37.1427595,1.18938757 C37.3050807,2.24960063 36.7450726,0.62420046 37.1265274,3.45013601 Z M72.9995134,35.6112315 C73.1861828,34.4847551 72.7235674,34.3288414 72.6342907,33.7090845 C72.536898,33.0347578 72.9954554,32.8671506 72.4232731,31.845916 C72.0377603,31.1559979 71.595435,31.0975303 71.5305065,30.3998165 C71.2626765,27.4842306 70.5890435,28.5210566 69.6597546,27.6752249 C69.1768491,27.2386666 69.5867101,26.8254953 68.6655373,26.3616521 C67.1681242,25.6093686 66.6973927,26.6189097 65.8939027,25.5509009 C65.1553412,24.5686447 64.7373641,24.3191828 64.846931,23.1771151 C65.0579485,21.0021191 66.068398,22.1402891 64.7576543,19.8249708 C63.6498121,17.8721519 62.160515,15.919333 60.8578874,14.4732336 C60.4683165,14.0405731 60.0057011,13.6157083 59.6283043,13.253209 C58.5407522,12.2124851 57.0839194,10.8638318 55.8421622,10.068672 C52.8270458,8.14703578 52.7783495,7.48830046 49.4467068,7.1219033 C48.1481371,6.97768314 47.3852275,6.04999671 46.9429022,4.98978365 C46.0785418,2.91613164 45.0924405,3.77365691 44.3985173,2.89274458 C43.9927143,2.37822942 43.9156118,2.14825674 43.0269032,1.93777326 C41.387459,1.54798905 42.4587789,1.820838 41.6674631,0.967210568 C40.5474468,-0.241120494 38.5427799,0.811296882 38.1613251,0.889253725 C36.529997,-0.736146445 35.2679496,0.359147195 34.5618524,0.382534248 C33.5838671,0.417614827 33.6406796,0.0473198238 32.5328373,0.663178881 C31.7536956,1.09583936 31.9687712,1.41156457 30.9258574,1.44664515 C28.1907452,1.5440912 29.0875698,2.8849489 28.1379908,3.38777053 C27.3385588,3.80873748 27.2411661,3.47352306 26.8597113,4.44408575 C26.547243,5.23924555 26.7460864,5.81222834 26.5715911,6.43588308 C26.2915871,6.76330182 25.0863521,7.70268178 24.4127191,7.84690194 C23.2683547,8.08856815 22.4283424,7.42983283 21.5923882,7.40644578 C20.8294786,7.38695657 17.8427684,9.40993663 17.1975416,9.86598416 C14.3325724,11.8928621 12.4739946,13.7989069 10.229904,16.5390899 C5.93650814,21.7894833 8.05885788,21.8674401 7.16203323,23.6097755 C6.39912357,25.0870577 4.09822051,24.7284562 3.47328388,26.7514363 C3.15675753,27.7765688 3.45299373,27.0671615 2.66573589,27.7181011 C1.54977761,28.6418897 2.48718256,29.2226682 1.42803671,29.86971 C-0.394018799,30.9844929 0.673243114,32.5280383 0.93701507,33.475214 C-0.759241508,35.2409365 0.356716767,36.0828704 0.401355098,36.9520892 C0.450051459,37.8641842 0.0888867813,37.844695 0.693533265,38.858134 C1.01411764,39.3960362 1.48484913,39.69617 1.52542943,40.288642 C1.59847397,41.3449573 1.62282216,42.1479127 2.87269542,42.6468365 C4.35793444,43.2393085 3.17298965,43.722641 4.6095323,44.3190108 C5.35215181,44.6269403 5.89592784,44.4554353 6.71159189,44.5723705 C7.05652445,45.07909 7.93305894,45.8469649 8.14407651,46.536883 C8.50118316,47.6867464 7.79914395,48.485804 7.68957714,49.277066 C7.51102382,50.5711496 12.2670351,56.0203329 13.4235737,57.103933 C14.9128707,58.5032583 19.6201856,62.2568803 21.5031116,62.7129278 C23.2683547,63.1416905 24.4248932,62.0736817 25.8614359,65.203649 C26.2956451,66.1469268 26.681158,66.4002865 27.7524779,66.7238074 C28.6533606,66.9966563 28.4139368,67.819101 29.8017831,68.0958478 C30.8852771,68.314127 30.3617913,67.9711169 30.8974512,68.781868 C31.952539,70.3760855 34.0789468,69.2301199 34.5415622,69.1053889 C35.044758,69.499071 35.2801237,69.8888552 36.2094126,69.9824034 C37.3010227,70.091543 37.5972589,69.6588825 38.1572671,69.6199041 C39.0540917,69.5575386 39.09873,69.9473228 40.1578759,69.350953 C40.6854198,69.054717 40.9654239,68.5713846 41.5578963,68.5518954 C44.5040261,68.4583472 43.7411165,67.3474621 44.3985173,66.7355009 C44.8205525,66.3418189 45.3440383,66.5445067 45.8147698,65.6869814 C46.1231801,65.1217943 46.0866578,64.338328 46.0541936,63.6211251 C47.4014596,62.634971 47.9452356,61.5864515 50.4936785,62.5336271 C51.4635477,62.8961264 51.9302212,62.4322832 52.6971889,62.0074184 C54.1296735,61.2161565 55.1360649,60.5145449 56.4224605,59.5673692 C57.6439275,58.6669677 59.4010546,57.1662985 60.39933,56.0359243 C61.9210913,54.3091802 62.2700818,54.0129442 63.779669,51.7911742 C66.1495586,48.3026055 64.7251901,49.0704804 65.4475194,47.3788169 C65.930425,46.2523405 68.5884347,45.3675303 69.0591662,44.8296281 C69.2904739,44.5645749 69.4527951,44.2254626 69.5664199,43.8434741 C69.8342499,42.9547661 69.5055495,43.4147114 70.2075887,42.9937445 C70.8365834,42.6117559 71.1206455,41.9140422 71.1328196,40.8967054 C73.0116875,40.3237226 72.7884958,38.8035642 72.1148628,37.2171424 C72.4151571,36.6753424 72.8290761,36.636364 72.9995134,35.6112315 Z" id="Shape" fill="#060808"></path> </g> <path d="M137.98,43.402 C137.407997,43.1593321 137.122,42.70867 137.122,42.05 C137.122,41.8246655 137.217332,41.6643338 137.408,41.569 C137.598667,41.4736662 137.789332,41.4693329 137.98,41.556 C139.366673,42.1973365 140.831325,42.518 142.374,42.518 C143.934008,42.518 145.116996,42.1756701 145.923,41.491 C146.729004,40.8063299 147.132,39.7966733 147.132,38.462 C147.132,37.2139938 146.642338,36.2780031 145.663,35.654 C144.683662,35.0299969 143.119344,34.718 140.97,34.718 L140.632,34.718 C140.406665,34.718 140.207334,34.6356675 140.034,34.471 C139.860666,34.3063325 139.774,34.1026679 139.774,33.86 C139.774,33.6173321 139.860666,33.4136675 140.034,33.249 C140.207334,33.0843325 140.406665,33.002 140.632,33.002 L140.97,33.002 C142.876676,33.002 144.319662,32.6900031 145.299,32.066 C146.278338,31.4419969 146.768,30.5666723 146.768,29.44 C146.768,27.4813235 145.433346,26.502 142.764,26.502 C141.169325,26.502 139.678673,26.8226635 138.292,27.464 C138.101332,27.5506671 137.910667,27.5463338 137.72,27.451 C137.529332,27.3556662 137.434,27.1953345 137.434,26.97 C137.434,26.2766632 137.71133,25.826001 138.266,25.618 C139.670007,25.0459971 141.255991,24.76 143.024,24.76 C144.826675,24.76 146.243661,25.1543294 147.275,25.943 C148.306338,26.7316706 148.822,27.7846601 148.822,29.102 C148.822,31.494012 147.435347,33.0366632 144.662,33.73 C144.644666,33.73 144.636,33.7386666 144.636,33.756 C144.636,33.7733334 144.644666,33.782 144.662,33.782 C147.695348,34.2846692 149.212,35.8706533 149.212,38.54 C149.212,40.3600091 148.622672,41.7683284 147.444,42.765 C146.265327,43.7616716 144.601344,44.26 142.452,44.26 C140.891992,44.26 139.40134,43.9740029 137.98,43.402 Z M158.580666,36.85 C156.864658,36.85 155.569004,37.1273306 154.693666,37.682 C153.818329,38.2366694 153.380666,39.0166616 153.380666,40.022 C153.380666,40.8020039 153.601664,41.4303309 154.043666,41.907 C154.485669,42.3836691 155.070663,42.622 155.798666,42.622 C157.046673,42.622 158.082329,42.2060042 158.905666,41.374 C159.729004,40.5419958 160.140666,39.4413402 160.140666,38.072 L160.140666,37.084 C160.140666,36.9279992 160.062667,36.85 159.906666,36.85 L158.580666,36.85 Z M155.382666,44.26 C154.203994,44.26 153.242003,43.8873371 152.496666,43.142 C151.751329,42.3966629 151.378666,41.4086728 151.378666,40.178 C151.378666,38.7393261 151.950661,37.586671 153.094666,36.72 C154.238672,35.853329 156.06732,35.42 158.580666,35.42 L159.906666,35.42 C160.062667,35.42 160.140666,35.3506674 160.140666,35.212 L160.140666,34.718 C160.140666,33.6606614 159.898002,32.9196688 159.412666,32.495 C158.927331,32.0703312 158.069339,31.858 156.838666,31.858 C155.64266,31.858 154.35134,32.0833311 152.964666,32.534 C152.756665,32.6033337 152.566001,32.5773339 152.392666,32.456 C152.219332,32.3346661 152.132666,32.1613345 152.132666,31.936 C152.132666,31.3293303 152.418664,30.9393342 152.990666,30.766 C154.273339,30.4019982 155.555993,30.22 156.838666,30.22 C158.83201,30.22 160.214329,30.5839964 160.985666,31.312 C161.757004,32.0400036 162.142666,33.3486572 162.142666,35.238 L162.142666,43.064 C162.142666,43.3240013 162.051667,43.5449991 161.869666,43.727 C161.687665,43.9090009 161.466668,44 161.206666,44 C160.946665,44 160.721334,43.9090009 160.530666,43.727 C160.339999,43.5449991 160.244666,43.3240013 160.244666,43.064 L160.218666,41.712 C160.218666,41.6946666 160.21,41.686 160.192666,41.686 C160.158,41.686 160.140666,41.7033332 160.140666,41.738 C159.117995,43.4193417 157.53201,44.26 155.382666,44.26 Z M167.533333,37.24 L167.533333,37.578 C167.533333,39.1380078 167.897329,40.381662 168.625333,41.309 C169.353337,42.236338 170.315327,42.7 171.511333,42.7 C172.759339,42.7 173.742996,42.2493378 174.462333,41.348 C175.18167,40.4466622 175.541333,39.1813415 175.541333,37.552 L175.541333,37.474 C175.541333,35.8793254 175.177337,34.618338 174.449333,33.691 C173.721329,32.763662 172.768006,32.3 171.589333,32.3 C170.341327,32.3 169.353337,32.733329 168.625333,33.6 C167.897329,34.466671 167.533333,35.6799922 167.533333,37.24 Z M171.589333,44.26 C169.69999,44.26 168.231005,43.6576727 167.182333,42.453 C166.133661,41.2483273 165.609333,39.5366778 165.609333,37.318 L165.609333,31.598 C165.609333,29.1886546 166.19866,27.446672 167.377333,26.372 C168.556006,25.297328 170.427987,24.76 172.993333,24.76 C173.998671,24.76 174.995328,24.7080005 175.983333,24.604 C176.191334,24.5693332 176.373332,24.6213326 176.529333,24.76 C176.685334,24.8986674 176.763333,25.071999 176.763333,25.28 C176.763333,25.5053345 176.689667,25.7046658 176.542333,25.878 C176.394999,26.0513342 176.208667,26.1466666 175.983333,26.164 C175.047328,26.2680005 174.050672,26.32 172.993333,26.32 C170.965323,26.32 169.548337,26.7056628 168.742333,27.477 C167.936329,28.2483372 167.533333,29.5959904 167.533333,31.52 L167.533333,32.976 C167.533333,32.9933334 167.542,33.002 167.559333,33.002 C167.594,33.002 167.611333,32.9933334 167.611333,32.976 C168.547338,31.4853259 170.020656,30.74 172.031333,30.74 C173.608674,30.74 174.899995,31.3509939 175.905333,32.573 C176.910671,33.7950061 177.413333,35.437323 177.413333,37.5 C177.413333,39.6493441 176.897671,41.3133274 175.866333,42.492 C174.834995,43.6706726 173.409342,44.26 171.589333,44.26 Z M190.188,37.24 C190.188,33.5999818 188.801347,31.78 186.028,31.78 C183.254652,31.78 181.868,33.5999818 181.868,37.24 C181.868,40.8800182 183.254652,42.7 186.028,42.7 C188.801347,42.7 190.188,40.8800182 190.188,37.24 Z M190.578,42.414 C189.485994,43.6446728 187.969343,44.26 186.028,44.26 C184.086657,44.26 182.570005,43.6446728 181.478,42.414 C180.385994,41.1833272 179.84,39.4586778 179.84,37.24 C179.84,35.0213222 180.385994,33.2966728 181.478,32.066 C182.570005,30.8353272 184.086657,30.22 186.028,30.22 C187.969343,30.22 189.485994,30.8353272 190.578,32.066 C191.670005,33.2966728 192.216,35.0213222 192.216,37.24 C192.216,39.4586778 191.670005,41.1833272 190.578,42.414 Z M195.032666,32.066 C194.807332,32.066 194.621,31.9880008 194.473666,31.832 C194.326332,31.6759992 194.252666,31.4853345 194.252666,31.26 C194.252666,31.0346655 194.326332,30.8483341 194.473666,30.701 C194.621,30.5536659 194.807332,30.48 195.032666,30.48 L204.964666,30.48 C205.190001,30.48 205.376332,30.5536659 205.523666,30.701 C205.671,30.8483341 205.744666,31.0346655 205.744666,31.26 C205.744666,31.4853345 205.671,31.6759992 205.523666,31.832 C205.376332,31.9880008 205.190001,32.066 204.964666,32.066 L201.246666,32.066 C201.107999,32.066 201.038666,32.1353326 201.038666,32.274 L201.038666,42.96 C201.038666,43.2373347 200.934667,43.479999 200.726666,43.688 C200.518665,43.896001 200.276001,44 199.998666,44 C199.721331,44 199.478667,43.896001 199.270666,43.688 C199.062665,43.479999 198.958666,43.2373347 198.958666,42.96 L198.958666,32.274 C198.958666,32.1353326 198.889334,32.066 198.750666,32.066 L195.032666,32.066 Z M215.243333,36.85 C213.527324,36.85 212.231671,37.1273306 211.356333,37.682 C210.480995,38.2366694 210.043333,39.0166616 210.043333,40.022 C210.043333,40.8020039 210.264331,41.4303309 210.706333,41.907 C211.148335,42.3836691 211.733329,42.622 212.461333,42.622 C213.709339,42.622 214.744995,42.2060042 215.568333,41.374 C216.39167,40.5419958 216.803333,39.4413402 216.803333,38.072 L216.803333,37.084 C216.803333,36.9279992 216.725334,36.85 216.569333,36.85 L215.243333,36.85 Z M212.045333,44.26 C210.86666,44.26 209.90467,43.8873371 209.159333,43.142 C208.413996,42.3966629 208.041333,41.4086728 208.041333,40.178 C208.041333,38.7393261 208.613327,37.586671 209.757333,36.72 C210.901339,35.853329 212.729987,35.42 215.243333,35.42 L216.569333,35.42 C216.725334,35.42 216.803333,35.3506674 216.803333,35.212 L216.803333,34.718 C216.803333,33.6606614 216.560669,32.9196688 216.075333,32.495 C215.589997,32.0703312 214.732006,31.858 213.501333,31.858 C212.305327,31.858 211.014006,32.0833311 209.627333,32.534 C209.419332,32.6033337 209.228667,32.5773339 209.055333,32.456 C208.881999,32.3346661 208.795333,32.1613345 208.795333,31.936 C208.795333,31.3293303 209.08133,30.9393342 209.653333,30.766 C210.936006,30.4019982 212.21866,30.22 213.501333,30.22 C215.494676,30.22 216.876996,30.5839964 217.648333,31.312 C218.41967,32.0400036 218.805333,33.3486572 218.805333,35.238 L218.805333,43.064 C218.805333,43.3240013 218.714334,43.5449991 218.532333,43.727 C218.350332,43.9090009 218.129334,44 217.869333,44 C217.609331,44 217.384,43.9090009 217.193333,43.727 C217.002665,43.5449991 216.907333,43.3240013 216.907333,43.064 L216.881333,41.712 C216.881333,41.6946666 216.872666,41.686 216.855333,41.686 C216.820666,41.686 216.803333,41.7033332 216.803333,41.738 C215.780661,43.4193417 214.194677,44.26 212.045333,44.26 Z" id="" fill="#000000"></path> <path d="M95.158,43.402 C94.5859971,43.1593321 94.3,42.70867 94.3,42.05 C94.3,41.8246655 94.3953324,41.6643338 94.586,41.569 C94.7766676,41.4736662 94.9673324,41.4693329 95.158,41.556 C96.5446736,42.1973365 98.0093256,42.518 99.552,42.518 C101.112008,42.518 102.294996,42.1756701 103.101,41.491 C103.907004,40.8063299 104.31,39.7966733 104.31,38.462 C104.31,37.2139938 103.820338,36.2780031 102.841,35.654 C101.861662,35.0299969 100.297344,34.718 98.148,34.718 L97.81,34.718 C97.5846655,34.718 97.3853342,34.6356675 97.212,34.471 C97.0386658,34.3063325 96.952,34.1026679 96.952,33.86 C96.952,33.6173321 97.0386658,33.4136675 97.212,33.249 C97.3853342,33.0843325 97.5846655,33.002 97.81,33.002 L98.148,33.002 C100.054676,33.002 101.497662,32.6900031 102.477,32.066 C103.456338,31.4419969 103.946,30.5666723 103.946,29.44 C103.946,27.4813235 102.611347,26.502 99.942,26.502 C98.3473254,26.502 96.8566736,26.8226635 95.47,27.464 C95.2793324,27.5506671 95.0886676,27.5463338 94.898,27.451 C94.7073324,27.3556662 94.612,27.1953345 94.612,26.97 C94.612,26.2766632 94.8893306,25.826001 95.444,25.618 C96.848007,25.0459971 98.4339912,24.76 100.202,24.76 C102.004676,24.76 103.421662,25.1543294 104.453,25.943 C105.484338,26.7316706 106,27.7846601 106,29.102 C106,31.494012 104.613347,33.0366632 101.84,33.73 C101.822667,33.73 101.814,33.7386666 101.814,33.756 C101.814,33.7733334 101.822667,33.782 101.84,33.782 C104.873349,34.2846692 106.39,35.8706533 106.39,38.54 C106.39,40.3600091 105.800673,41.7683283 104.622,42.765 C103.443327,43.7616716 101.779344,44.26 99.63,44.26 C98.0699922,44.26 96.5793404,43.9740029 95.158,43.402 Z M119.034667,42.414 C117.942661,43.6446728 116.42601,44.26 114.484667,44.26 C112.543324,44.26 111.026672,43.6446728 109.934667,42.414 C108.842661,41.1833272 108.296667,39.4586778 108.296667,37.24 C108.296667,35.0213222 108.842661,33.2966728 109.934667,32.066 C111.026672,30.8353272 112.543324,30.22 114.484667,30.22 C116.42601,30.22 117.942661,30.8353272 119.034667,32.066 C120.126672,33.2966728 120.672667,35.0213222 120.672667,37.24 C120.672667,39.4586778 120.126672,41.1833272 119.034667,42.414 Z M118.644667,37.24 C118.644667,33.5999818 117.258014,31.78 114.484667,31.78 C111.711319,31.78 110.324667,33.5999818 110.324667,37.24 C110.324667,40.8800182 111.711319,42.7 114.484667,42.7 C117.258014,42.7 118.644667,40.8800182 118.644667,37.24 Z M133.317333,42.414 C132.225328,43.6446728 130.708676,44.26 128.767333,44.26 C126.82599,44.26 125.309339,43.6446728 124.217333,42.414 C123.125328,41.1833272 122.579333,39.4586778 122.579333,37.24 C122.579333,35.0213222 123.125328,33.2966728 124.217333,32.066 C125.309339,30.8353272 126.82599,30.22 128.767333,30.22 C130.708676,30.22 132.225328,30.8353272 133.317333,32.066 C134.409339,33.2966728 134.955333,35.0213222 134.955333,37.24 C134.955333,39.4586778 134.409339,41.1833272 133.317333,42.414 Z M132.927333,37.24 C132.927333,33.5999818 131.54068,31.78 128.767333,31.78 C125.993986,31.78 124.607333,33.5999818 124.607333,37.24 C124.607333,40.8800182 125.993986,42.7 128.767333,42.7 C131.54068,42.7 132.927333,40.8800182 132.927333,37.24 Z" id="Combined-Shape" fill="#F50206"></path> </g> </g> </svg> 